<svg preserveAspectRatio="none" width="100%" height="100%" overflow="visible" style="display: block;" viewBox="0 0 30 30" fill="none" xmlns="http://www.w3.org/2000/svg">
<g id="Img">
<path id="Vector" d="M15.9375 5.625C11.332 5.625 7.43555 8.64258 6.11133 12.8027C8.08008 11.8066 10.3008 11.25 12.6562 11.25H17.8125C18.3281 11.25 18.75 11.6719 18.75 12.1875C18.75 12.7031 18.3281 13.125 17.8125 13.125H16.875H12.6562C11.6836 13.125 10.7402 13.2363 9.83203 13.4414C8.31445 13.7871 6.90234 14.4023 5.64844 15.2402C2.24414 17.5078 0 21.3809 0 25.7813V26.7188C0 27.498 0.626953 28.125 1.40625 28.125C2.18555 28.125 2.8125 27.498 2.8125 26.7188V25.7813C2.8125 22.9277 4.02539 20.3613 5.96484 18.5625C7.125 22.9863 11.1504 26.25 15.9375 26.25H15.9961C23.7363 26.209 30 18.5801 30 9.17578C30 6.67969 29.5605 4.30664 28.7637 2.16797C28.6113 1.76367 28.0195 1.78125 27.8145 2.16211C26.7129 4.22461 24.5332 5.625 22.0312 5.625H15.9375Z" fill="#4F3267"/>
</g>
</svg>
