<svg preserveAspectRatio="none" width="100%" height="100%" overflow="visible" style="display: block;" viewBox="0 0 33.75 30.1207" fill="none" xmlns="http://www.w3.org/2000/svg">
<g id="Img">
<path id="Vector" d="M16.875 0C17.7246 0 18.4687 0.568359 18.6855 1.39453L20.0859 6.64453L24.5332 3.52148C25.2305 3.03516 26.1621 3.07617 26.8184 3.62109C27.4746 4.16602 27.6738 5.08008 27.3105 5.85352L25.0078 10.7754L30.4219 11.2441C31.2656 11.3145 31.957 11.9473 32.1094 12.7852C32.2617 13.623 31.8223 14.4551 31.0547 14.8125L26.127 17.1035L29.9766 20.9414C30.5801 21.5391 30.7031 22.4707 30.2754 23.209C29.8477 23.9473 28.9863 24.3047 28.166 24.082L22.9102 22.6641L23.3906 28.0781C23.4668 28.9219 22.9629 29.7129 22.166 30.0059C21.3691 30.2988 20.4727 30.0117 19.9863 29.3203L16.875 24.8672L13.7637 29.3203C13.2773 30.0176 12.3809 30.2988 11.584 30.0059C10.7871 29.7129 10.2832 28.9219 10.3594 28.0781L10.8398 22.6641L5.58984 24.0762C4.76953 24.2988 3.90234 23.9414 3.48047 23.2031C3.05859 22.4648 3.17578 21.5391 3.7793 20.9355L7.62891 17.0977L2.69531 14.8066C1.92773 14.4492 1.49414 13.6172 1.64063 12.7793C1.78711 11.9414 2.47852 11.3086 3.32812 11.2383L8.74219 10.7695L6.43945 5.84766C6.08203 5.08008 6.28125 4.16016 6.93164 3.61523C7.58203 3.07031 8.51953 3.0293 9.2168 3.51562L13.6641 6.63867L15.0645 1.38867C15.2813 0.568359 16.0254 0 16.875 0ZM16.875 9.15234L16.5938 10.207C16.4355 10.7988 15.9961 11.2734 15.4219 11.4844C14.8477 11.6953 14.2031 11.6074 13.7051 11.2559L12.8145 10.6289L13.2773 11.6133C13.5352 12.1699 13.5117 12.8145 13.2012 13.3477C12.8906 13.8809 12.3516 14.2266 11.7363 14.2793L10.6523 14.373L11.6367 14.8301C12.1934 15.0879 12.5859 15.6035 12.6914 16.207C12.7969 16.8105 12.6035 17.4258 12.1699 17.8594L11.3965 18.627L12.4453 18.3457C13.0371 18.1875 13.6699 18.3281 14.1387 18.7207C14.6074 19.1133 14.8535 19.7109 14.8008 20.3203L14.707 21.4043L15.3281 20.5137C15.6797 20.0098 16.2539 19.7109 16.8633 19.7109C17.4727 19.7109 18.0469 20.0098 18.3984 20.5137L19.0195 21.4043L18.9258 20.3203C18.873 19.7109 19.1191 19.1133 19.5879 18.7207C20.0566 18.3281 20.6895 18.1875 21.2813 18.3457L22.3301 18.627L21.5566 17.8594C21.123 17.4258 20.9297 16.8105 21.0352 16.207C21.1406 15.6035 21.5332 15.0879 22.0898 14.8301L23.0742 14.373L21.9902 14.2793C21.3809 14.2266 20.8359 13.8809 20.5254 13.3477C20.2148 12.8145 20.1914 12.1699 20.4492 11.6133L20.9121 10.6289L20.0215 11.2559C19.5176 11.6074 18.8789 11.6953 18.3047 11.4844C17.7305 11.2734 17.291 10.7988 17.1328 10.207L16.8516 9.15234H16.875Z" fill="#4F3267"/>
</g>
</svg>
