<svg preserveAspectRatio="none" width="100%" height="100%" overflow="visible" style="display: block;" viewBox="0 0 30 30" fill="none" xmlns="http://www.w3.org/2000/svg">
<g id="Img">
<path id="Vector" d="M3.75 12.1875C3.75 12.6445 4.00781 13.2832 4.75195 13.9629C7.41211 12.5449 11.0684 11.7188 15 11.7188C18.9316 11.7188 22.5879 12.5449 25.248 13.9629C25.9922 13.2832 26.25 12.6445 26.25 12.1875C26.25 11.4668 25.6172 10.3125 23.4434 9.22266C21.3809 8.19141 18.3984 7.5 15 7.5C11.6016 7.5 8.61914 8.19141 6.55664 9.22266C4.38281 10.3125 3.75 11.4668 3.75 12.1875ZM15 14.5312C12.2461 14.5312 9.76758 14.9766 7.79883 15.6855C9.74414 16.418 12.2344 16.875 15 16.875C17.7656 16.875 20.2559 16.418 22.2012 15.6855C20.2324 14.9766 17.7539 14.5312 15 14.5312ZM0 12.1875C0 9.28125 2.30859 7.16016 4.88086 5.87109C7.56445 4.5293 11.1504 3.75 15 3.75C18.8496 3.75 22.4355 4.5293 25.1191 5.87109C27.6914 7.16016 30 9.28125 30 12.1875V17.8125C30 20.7187 27.6914 22.8398 25.1191 24.1289C22.4355 25.4707 18.8496 26.25 15 26.25C11.1504 26.25 7.56445 25.4707 4.88086 24.1289C2.30859 22.8398 0 20.7187 0 17.8125V12.1875Z" fill="#4F3267"/>
</g>
</svg>
