<svg preserveAspectRatio="none" width="100%" height="100%" overflow="visible" style="display: block;" viewBox="0 0 33.75 30.0034" fill="none" xmlns="http://www.w3.org/2000/svg">
<g id="Img">
<path id="Vector" d="M18.5684 1.05469C18.2578 0.410156 17.6016 0 16.8809 0C16.1602 0 15.5098 0.410156 15.1934 1.05469L11.4258 8.80664L3.01172 10.0488C2.30859 10.1543 1.72266 10.6465 1.50586 11.3203C1.28906 11.9941 1.46484 12.7383 1.96875 13.2363L8.07422 19.2773L6.63281 27.8145C6.51562 28.5176 6.80859 29.2324 7.38867 29.6484C7.96875 30.0645 8.73633 30.1172 9.36914 29.7832L16.8867 25.7695L24.4043 29.7832C25.0371 30.1172 25.8047 30.0703 26.3848 29.6484C26.9648 29.2266 27.2578 28.5176 27.1406 27.8145L25.6934 19.2773L31.7988 13.2363C32.3027 12.7383 32.4844 11.9941 32.2617 11.3203C32.0391 10.6465 31.459 10.1543 30.7559 10.0488L22.3359 8.80664L18.5684 1.05469Z" fill="#4F3267"/>
</g>
</svg>
