<svg preserveAspectRatio="none" width="100%" height="100%" overflow="visible" style="display: block;" viewBox="0 0 30.0009 30" fill="none" xmlns="http://www.w3.org/2000/svg">
<g id="Img">
<path id="Vector" d="M6.83883 1.98047C7.1025 1.62305 7.52438 1.40625 7.96969 1.40625H22.0322C22.4775 1.40625 22.8994 1.61719 23.163 1.98047L29.7255 10.8867C30.124 11.4258 30.083 12.1699 29.6377 12.668L16.0439 27.668C15.7802 27.9609 15.3994 28.1309 15.0009 28.1309C14.6025 28.1309 14.2275 27.9609 13.958 27.668L0.364219 12.668C-0.0869532 12.1699 -0.122109 11.4258 0.276328 10.8867L6.83883 1.98047ZM9.09469 4.3125C8.90133 4.45898 8.84859 4.72266 8.97164 4.92773L12.3349 10.5293L3.70992 11.25C3.46969 11.2676 3.28219 11.4727 3.28219 11.7188C3.28219 11.9648 3.46969 12.1641 3.70992 12.1875L14.9599 13.125C14.9834 13.125 15.0127 13.125 15.0361 13.125L26.2861 12.1875C26.5263 12.1699 26.7138 11.9648 26.7138 11.7188C26.7138 11.4727 26.5263 11.2734 26.2861 11.25L17.667 10.5352L21.0302 4.93359C21.1533 4.72852 21.1005 4.45898 20.9072 4.31836C20.7138 4.17773 20.4443 4.20117 20.2802 4.37695L15.0009 10.0898L9.72164 4.37109C9.55758 4.19531 9.28805 4.17187 9.09469 4.3125Z" fill="#4F3267"/>
</g>
</svg>
