<svg preserveAspectRatio="none" width="100%" height="100%" overflow="visible" style="display: block;" viewBox="0 0 37.5059 30" fill="none" xmlns="http://www.w3.org/2000/svg">
<g id="Img">
<path id="Vector" d="M4.6875 6.09375C4.6875 4.79883 3.63867 3.75 2.34375 3.75C1.04883 3.75 0 4.79883 0 6.09375V9.375V13.125V19.0723C0 20.5664 0.591797 21.9961 1.64648 23.0508L7.5 28.9043C8.20313 29.6074 9.1582 30 10.1543 30H14.0625C15.6152 30 16.875 28.7402 16.875 27.1875V22.5645C16.875 20.8242 16.1836 19.1543 14.9531 17.9238L13.4707 16.4414L12.5801 15.5508L10.7051 13.6758C9.97266 12.9434 8.7832 12.9434 8.05078 13.6758C7.31836 14.4082 7.31836 15.5977 8.05078 16.3301L9.92578 18.2051L10.8164 19.0957C11.4609 19.7402 11.3555 20.8066 10.5996 21.3105C10.0313 21.6914 9.26953 21.6152 8.7832 21.1289L5.7832 18.1348C5.08008 17.4316 4.6875 16.4766 4.6875 15.4805V13.125V8.4375V6.09375ZM32.8125 6.09375V8.4375V13.125V15.4805C32.8125 16.4766 32.4199 17.4316 31.7168 18.1348L28.7227 21.1289C28.2363 21.6152 27.4746 21.6914 26.9063 21.3105C26.1504 20.8066 26.0449 19.7344 26.6895 19.0957L27.5801 18.2051L29.4551 16.3301C30.1875 15.5977 30.1875 14.4082 29.4551 13.6758C28.7227 12.9434 27.5332 12.9434 26.8008 13.6758L24.9258 15.5508L24.0352 16.4414L22.5527 17.9238C21.3223 19.1543 20.6309 20.8242 20.6309 22.5645V27.1875C20.6309 28.7402 21.8906 30 23.4434 30H27.3516C28.3477 30 29.3027 29.6074 30.0059 28.9043L35.8594 23.0508C36.9141 21.9961 37.5059 20.5664 37.5059 19.0723V13.125V9.375V6.09375C37.5059 4.79883 36.457 3.75 35.1621 3.75C33.8672 3.75 32.8184 4.79883 32.8184 6.09375H32.8125Z" fill="#4F3267"/>
</g>
</svg>
